<svg xmlns="http://www.w3.org/2000/svg" xmlns:xlink="http://www.w3.org/1999/xlink" width="500" zoomAndPan="magnify" viewBox="0 0 375 374.999991" height="500" preserveAspectRatio="xMidYMid meet" version="1.0"><defs><g/><clipPath id="72060caa25"><rect x="0" width="133" y="0" height="184"/></clipPath><clipPath id="959025e06d"><path d="M 209 217 L 237 217 L 237 240 L 209 240 Z M 209 217 " clip-rule="nonzero"/></clipPath><clipPath id="1b95a4af8b"><path d="M 207.644531 231.121094 L 234.839844 215.222656 L 244.679688 232.058594 L 217.488281 247.953125 Z M 207.644531 231.121094 " clip-rule="nonzero"/></clipPath><clipPath id="e60c4b5716"><path d="M 207.644531 231.121094 L 234.839844 215.222656 L 244.679688 232.058594 L 217.488281 247.953125 Z M 207.644531 231.121094 " clip-rule="nonzero"/></clipPath><clipPath id="bea5336972"><path d="M 163 158 L 186 158 L 186 176 L 163 176 Z M 163 158 " clip-rule="nonzero"/></clipPath><clipPath id="8c975048cc"><path d="M 184.210938 176.878906 L 162.410156 166.839844 L 168.6875 153.214844 L 190.484375 163.257812 Z M 184.210938 176.878906 " clip-rule="nonzero"/></clipPath><clipPath id="52b26ac0e3"><path d="M 184.210938 176.878906 L 162.410156 166.839844 L 168.6875 153.214844 L 190.484375 163.257812 Z M 184.210938 176.878906 " clip-rule="nonzero"/></clipPath></defs><g transform="matrix(1, 0, 0, 1, 136, 95)"><g clip-path="url(#72060caa25)"><g fill="#454411" fill-opacity="1"><g transform="translate(3.100487, 132.982999)"><g><path d="M 16.1875 -99.78125 C 22.070312 -102.226562 27.734375 -103.453125 33.171875 -103.453125 C 37.703125 -103.453125 42.367188 -101.773438 47.171875 -98.421875 C 49.796875 -96.609375 52.742188 -93.070312 56.015625 -87.8125 C 58.179688 -84.1875 60.941406 -77.617188 64.296875 -68.109375 L 80.890625 -21.0625 C 84.691406 -10.550781 88.5625 -2.191406 92.5 4.015625 C 96.445312 10.222656 100.050781 14.890625 103.3125 18.015625 C 106.570312 21.140625 109.96875 23.332031 113.5 24.59375 C 117.039062 25.863281 119.96875 26.5 122.28125 26.5 C 124.59375 26.5 126.65625 26.320312 128.46875 25.96875 L 128.59375 27.328125 C 124.25 28.773438 119.988281 29.5 115.8125 29.5 C 111.644531 29.5 107.476562 28.429688 103.3125 26.296875 C 99.144531 24.171875 95.25 21.207031 91.625 17.40625 C 83.832031 9.519531 77.21875 -2.488281 71.78125 -18.625 L 66.484375 -34.125 L 29.234375 -34.125 L 19.84375 -9.921875 C 19.394531 -8.835938 19.171875 -7.75 19.171875 -6.65625 C 19.171875 -5.570312 19.644531 -4.414062 20.59375 -3.1875 C 21.550781 -1.96875 23.023438 -1.359375 25.015625 -1.359375 L 26.109375 -1.359375 L 26.109375 0 L -1.21875 0 L -1.21875 -1.359375 L 0 -1.359375 C 2.175781 -1.359375 4.304688 -2.015625 6.390625 -3.328125 C 8.472656 -4.640625 10.195312 -6.613281 11.5625 -9.25 L 45.265625 -89.984375 C 40.378906 -96.960938 34.3125 -100.453125 27.0625 -100.453125 C 23.789062 -100.453125 20.300781 -99.773438 16.59375 -98.421875 Z M 30.71875 -38.203125 L 65.125 -38.203125 L 54.375 -69.875 C 52.289062 -75.945312 50.390625 -80.703125 48.671875 -84.140625 Z M 30.71875 -38.203125 "/></g></g></g></g></g><g clip-path="url(#959025e06d)"><g clip-path="url(#1b95a4af8b)"><g clip-path="url(#e60c4b5716)"><path fill="#ffffff" d="M 231.578125 217.210938 L 227.277344 233.613281 L 210.875 229.3125 L 209.546875 234.375 L 231.011719 240 L 236.640625 218.535156 Z M 231.578125 217.210938 " fill-opacity="1" fill-rule="nonzero"/></g></g></g><g clip-path="url(#bea5336972)"><g clip-path="url(#8c975048cc)"><g clip-path="url(#52b26ac0e3)"><path fill="#ffffff" d="M 164.777344 167.871094 L 177.085938 163.324219 L 181.632812 175.632812 L 185.429688 174.230469 L 179.484375 158.125 L 163.375 164.070312 Z M 164.777344 167.871094 " fill-opacity="1" fill-rule="nonzero"/></g></g></g></svg>